HIERARCHY
ROOT Hips
{
    OFFSET 0.000000 0.000000 0.000000
    CHANNELS 6 Xposition Yposition Zposition Zrotation Xrotation Yrotation
    JOINT Spine
    {
        OFFSET 0.000001 7.292995 0.000000
        CHANNELS 3 Zrotation Xrotation Yrotation
        JOINT Spine1
        {
            OFFSET -0.000000 20.255388 0.000001
            CHANNELS 3 Zrotation Xrotation Yrotation
            JOINT Neck
            {
                OFFSET 0.000001 20.786594 0.000000
                CHANNELS 3 Zrotation Xrotation Yrotation
                JOINT Head
                {
                    OFFSET 0.000003 12.530788 1.776080
                    CHANNELS 3 Zrotation Xrotation Yrotation
                    End Site
                    {
                        OFFSET 0.000000 17.760757 0.000000
                    }
                }
            }
            JOINT LeftShoulder
            {
                OFFSET 3.550532 15.465697 -0.908801
                CHANNELS 3 Zrotation Xrotation Yrotation
                JOINT LeftArm
                {
                    OFFSET 12.513301 -0.000005 0.000001
                    CHANNELS 3 Zrotation Xrotation Yrotation
                    JOINT LeftForeArm
                    {
                        OFFSET 24.225992 0.000005 0.000000
                        CHANNELS 3 Zrotation Xrotation Yrotation
                        JOINT LeftHand
                        {
                            OFFSET 20.711395 -0.000004 0.000000
                            CHANNELS 3 Zrotation Xrotation Yrotation
                            JOINT LeftHandThumb1
                            {
                                OFFSET 2.121964 -2.411326 3.375861
                                CHANNELS 3 Zrotation Xrotation Yrotation
                                JOINT LeftHandThumb2
                                {
                                    OFFSET 2.803212 -0.000001 -0.000002
                                    CHANNELS 3 Zrotation Xrotation Yrotation
                                    JOINT LeftHandThumb3
                                    {
                                        OFFSET 2.395929 0.000000 0.000000
                                        CHANNELS 3 Zrotation Xrotation Yrotation
                                        End Site
                                        {
                                            OFFSET 2.127676 0.000000 0.000000
                                        }
                                    }
                                }
                            }
                            JOINT LeftHandIndex1
                            {
                                OFFSET 8.680776 0.000004 3.375861
                                CHANNELS 3 Zrotation Xrotation Yrotation
                                JOINT LeftHandIndex2
                                {
                                    OFFSET 4.218180 -0.000002 0.000001
                                    CHANNELS 3 Zrotation Xrotation Yrotation
                                    JOINT LeftHandIndex3
                                    {
                                        OFFSET 2.109090 0.000001 -0.000000
                                        CHANNELS 3 Zrotation Xrotation Yrotation
                                        End Site
                                        {
                                            OFFSET 1.872952 0.000000 0.000000
                                        }
                                    }
                                }
                            }
                            JOINT LeftHandMiddle1
                            {
                                OFFSET 8.680775 0.000001 1.118862
                                CHANNELS 3 Zrotation Xrotation Yrotation
                                JOINT LeftHandMiddle2
                                {
                                    OFFSET 4.640000 0.000002 -0.000000
                                    CHANNELS 3 Zrotation Xrotation Yrotation
                                    JOINT LeftHandMiddle3
                                    {
                                        OFFSET 2.530906 0.000005 0.000000
                                        CHANNELS 3 Zrotation Xrotation Yrotation
                                        End Site
                                        {
                                            OFFSET 2.247544 0.000000 0.000000
                                        }
                                    }
                                }
                            }
                            JOINT LeftHandRing1
                            {
                                OFFSET 8.198514 -0.000004 -1.118859
                                CHANNELS 3 Zrotation Xrotation Yrotation
                                JOINT LeftHandRing2
                                {
                                    OFFSET 4.218182 -0.000003 -0.000001
                                    CHANNELS 3 Zrotation Xrotation Yrotation
                                    JOINT LeftHandRing3
                                    {
                                        OFFSET 2.109086 0.000004 0.000001
                                        CHANNELS 3 Zrotation Xrotation Yrotation
                                        End Site
                                        {
                                            OFFSET 1.872952 0.000000 0.000000
                                        }
                                    }
                                }
                            }
                            JOINT LeftHandPinky1
                            {
                                OFFSET 7.716242 0.000005 -3.375859
                                CHANNELS 3 Zrotation Xrotation Yrotation
                                JOINT LeftHandPinky2
                                {
                                    OFFSET 3.374535 0.000004 0.000002
                                    CHANNELS 3 Zrotation Xrotation Yrotation
                                    JOINT LeftHandPinky3
                                    {
                                        OFFSET 1.687275 0.000002 -0.000001
                                        CHANNELS 3 Zrotation Xrotation Yrotation
                                        End Site
                                        {
                                            OFFSET 1.498360 0.000000 0.000000
                                        }
                                    }
                                }
                            }
                        }
                    }
                }
            }
            JOINT RightShoulder
            {
                OFFSET -3.550531 15.465694 -0.908802
                CHANNELS 3 Zrotation Xrotation Yrotation
                JOINT RightArm
                {
                    OFFSET -12.513298 -0.000004 0.000001
                    CHANNELS 3 Zrotation Xrotation Yrotation
                    JOINT RightForeArm
                    {
                        OFFSET -24.225996 -0.000002 -0.000000
                        CHANNELS 3 Zrotation Xrotation Yrotation
                        JOINT RightHand
                        {
                            OFFSET -20.711401 0.000005 0.000001
                            CHANNELS 3 Zrotation Xrotation Yrotation
                            JOINT RightHandThumb1
                            {
                                OFFSET -2.121970 -2.411334 3.375861
                                CHANNELS 3 Zrotation Xrotation Yrotation
                                JOINT RightHandThumb2
                                {
                                    OFFSET -2.803210 0.000003 -0.000004
                                    CHANNELS 3 Zrotation Xrotation Yrotation
                                    JOINT RightHandThumb3
                                    {
                                        OFFSET -2.395930 -0.000001 0.000002
                                        CHANNELS 3 Zrotation Xrotation Yrotation
                                        End Site
                                        {
                                            OFFSET -2.127676 0.000000 0.000000
                                        }
                                    }
                                }
                            }
                            JOINT RightHandIndex1
                            {
                                OFFSET -8.680779 0.000001 3.375860
                                CHANNELS 3 Zrotation Xrotation Yrotation
                                JOINT RightHandIndex2
                                {
                                    OFFSET -4.218180 0.000000 -0.000000
                                    CHANNELS 3 Zrotation Xrotation Yrotation
                                    JOINT RightHandIndex3
                                    {
                                        OFFSET -2.109090 0.000001 -0.000000
                                        CHANNELS 3 Zrotation Xrotation Yrotation
                                        End Site
                                        {
                                            OFFSET -1.872952 0.000000 0.000000
                                        }
                                    }
                                }
                            }
                            JOINT RightHandMiddle1
                            {
                                OFFSET -8.680780 0.000001 1.118860
                                CHANNELS 3 Zrotation Xrotation Yrotation
                                JOINT RightHandMiddle2
                                {
                                    OFFSET -4.640000 -0.000002 0.000001
                                    CHANNELS 3 Zrotation Xrotation Yrotation
                                    JOINT RightHandMiddle3
                                    {
                                        OFFSET -2.530910 0.000001 -0.000000
                                        CHANNELS 3 Zrotation Xrotation Yrotation
                                        End Site
                                        {
                                            OFFSET -2.247544 0.000000 0.000000
                                        }
                                    }
                                }
                            }
                            JOINT RightHandRing1
                            {
                                OFFSET -8.198519 0.000005 -1.118860
                                CHANNELS 3 Zrotation Xrotation Yrotation
                                JOINT RightHandRing2
                                {
                                    OFFSET -4.218180 -0.000006 0.000000
                                    CHANNELS 3 Zrotation Xrotation Yrotation
                                    JOINT RightHandRing3
                                    {
                                        OFFSET -2.109090 0.000001 -0.000000
                                        CHANNELS 3 Zrotation Xrotation Yrotation
                                        End Site
                                        {
                                            OFFSET -1.872952 0.000000 0.000000
                                        }
                                    }
                                }
                            }
                            JOINT RightHandPinky1
                            {
                                OFFSET -7.716248 -0.000002 -3.375859
                                CHANNELS 3 Zrotation Xrotation Yrotation
                                JOINT RightHandPinky2
                                {
                                    OFFSET -3.374540 0.000000 0.000000
                                    CHANNELS 3 Zrotation Xrotation Yrotation
                                    JOINT RightHandPinky3
                                    {
                                        OFFSET -1.687270 0.000004 0.000001
                                        CHANNELS 3 Zrotation Xrotation Yrotation
                                        End Site
                                        {
                                            OFFSET -1.498360 0.000000 0.000000
                                        }
                                    }
                                }
                            }
                        }
                    }
                }
            }
        }
    }
    JOINT LeftUpLeg
    {
        OFFSET 8.880376 -0.000000 -0.000000
        CHANNELS 3 Zrotation Xrotation Yrotation
        JOINT LeftLeg
        {
            OFFSET -0.000001 -40.387405 -0.000001
            CHANNELS 3 Zrotation Xrotation Yrotation
            JOINT LeftFoot
            {
                OFFSET -0.000001 -36.911297 -0.000001
                CHANNELS 3 Zrotation Xrotation Yrotation
                JOINT LeftToeBase
                {
                    OFFSET -0.000002 -5.772240 13.320604
                    CHANNELS 3 Zrotation Xrotation Yrotation
                    End Site
                    {
                        OFFSET 0.000000 0.000000 3.552151
                    }
                }
            }
        }
    }
    JOINT RightUpLeg
    {
        OFFSET -8.880376 0.000000 0.000000
        CHANNELS 3 Zrotation Xrotation Yrotation
        JOINT RightLeg
        {
            OFFSET -0.000001 -40.387390 0.000000
            CHANNELS 3 Zrotation Xrotation Yrotation
            JOINT RightFoot
            {
                OFFSET 0.000002 -36.911297 -0.000001
                CHANNELS 3 Zrotation Xrotation Yrotation
                JOINT RightToeBase
                {
                    OFFSET 0.000001 -5.772238 13.320600
                    CHANNELS 3 Zrotation Xrotation Yrotation
                    End Site
                    {
                        OFFSET 0.000000 0.000000 3.552151
                    }
                }
            }
        }
    }
}
MOTION
Frames: 5
Frame Time: 0.013889
38.712265    80.380905    22.765095    8.452984    2.262409    -10.332090    -1.216008    -10.335264    -6.747555    8.863982    14.980577    -8.759510    5.118072    -16.933243    13.382348    2.669209    7.435784    12.018168    12.358017    -9.204719    -14.504365    -33.166710    34.310238    -77.055283    13.035356    -3.770297    -105.855797    46.042622    -13.409710    -8.674373    29.673925    35.478413    -45.726059    -11.720111    0.080938    23.317337    -0.000000    0.000000    -0.000000    6.022312    17.906975    2.718410    5.729583    0.000003    -0.000002    5.729573    0.000000    -0.000000    5.800518    8.954664    1.382260    5.729573    0.000007    0.000003    5.729583    -0.000000    -0.000002    5.800515    -8.954682    -3.956032    5.729578    0.000003    0.000002    5.729580    0.000006    -0.000007    6.022323    -17.906977    -7.865948    5.729578    -0.000003    0.000005    5.729568    -0.000007    -0.000003    4.897708    6.683494    11.935982    13.976527    52.459431    20.054661    6.240281    -2.777164    66.101730    -13.076007    25.419893    22.182140    -21.739170    45.699150    58.476044    24.900278    -5.534948    -22.686737    -0.000000    0.000000    -0.000000    11.587504    17.656101    26.476442    11.034643    0.000004    0.000002    11.034646    -0.000000    -0.000003    2.685549    8.990281    14.597591    2.652528    -0.000000    -0.000003    2.652533    -0.000003    -0.000001    -1.557692    -8.996734    5.485930    -1.538524    0.000000    -0.000004    -1.538524    0.000003    0.000003    -6.022318    -17.906981    9.601254    -5.729579    0.000003    0.000006    -5.729578    -0.000003    -0.000002    -16.673613    -34.644318    -5.668174    0.000002    63.479069    -0.000003    0.139771    12.926250    13.125197    0.000000    1.801493    0.000000    -12.621249    -19.217224    -10.998717    -0.000002    45.908543    0.000004    4.491495    -19.835073    10.385852    -0.000001    -0.907050    -0.000000    
38.646057    80.270210    22.737307    8.465427    2.165746    -10.328112    -1.211340    -10.314736    -6.734991    8.948152    15.002058    -8.773763    5.625102    -16.728445    13.401489    2.680825    7.588927    11.874829    12.464953    -9.075162    -14.549393    -32.541439    34.270733    -77.371674    12.323002    -3.516232    -105.682030    45.091522    -13.492736    -9.114016    30.002361    35.207493    -45.788185    -11.721642    0.080284    23.317341    -0.000000    0.000000    -0.000000    6.022321    17.906971    2.657893    5.729573    0.000004    0.000003    5.729590    -0.000004    -0.000007    5.800516    8.954667    1.352006    5.729580    0.000003    -0.000005    5.729573    0.000000    0.000002    5.800513    -8.954672    -3.841426    5.729576    -0.000000    -0.000002    5.729581    0.000003    0.000002    6.022318    -17.906969    -7.636731    5.729577    -0.000000    -0.000002    5.729590    -0.000007    0.000005    4.987988    6.695182    11.971026    13.959785    52.263737    19.971067    6.319255    -2.824942    66.008827    -12.806439    25.409748    22.079777    -21.388689    46.198376    58.496239    25.261442    -5.685076    -22.651432    -0.000000    0.000000    -0.000000    12.624690    17.591902    26.340158    12.025223    0.000003    -0.000001    12.025224    0.000007    -0.000001    3.186984    8.986307    14.608117    3.147819    0.000003    -0.000001    3.147822    -0.000003    -0.000002    -1.306964    -8.997697    5.525142    -1.290878    -0.000003    0.000001    -1.290879    0.000003    0.000000    -6.022324    -17.906969    9.601258    -5.729577    -0.000007    0.000002    -5.729578    0.000003    0.000002    -16.604933    -34.550098    -5.440373    0.000002    63.600391    -0.000004    0.200213    12.481399    13.252717    0.000001    1.731803    -0.000000    -12.600549    -19.419100    -10.881786    -0.000000    46.482090    -0.000001    4.363248    -20.012299    10.245971    -0.000000    -0.986694    0.000000    
38.595314    80.188011    22.710302    8.470007    2.088427    -10.309366    -1.207868    -10.286993    -6.733609    8.995517    15.012141    -8.787325    5.984500    -16.571878    13.409616    2.691100    7.702923    11.768999    12.611356    -9.038050    -14.544528    -31.982208    34.192062    -77.569794    11.690368    -3.308957    -105.586807    44.388481    -13.705534    -9.498125    30.296169    34.966953    -45.797947    -11.705426    0.087270    23.317322    -0.000000    0.000000    -0.000000    6.022313    17.906977    2.622578    5.729582    -0.000000    -0.000003    5.729576    -0.000003    0.000004    5.800516    8.954676    1.334347    5.729573    -0.000003    0.000004    5.729580    0.000003    -0.000004    5.800513    -8.954661    -3.709061    5.729581    -0.000014    -0.000001    5.729580    0.000003    0.000002    6.022320    -17.906973    -7.372008    5.729581    -0.000003    0.000004    5.729568    0.000013    -0.000011    5.040519    6.697403    11.999340    13.905574    52.135864    19.959171    6.418472    -2.872353    65.989235    -12.594795    25.397615    21.913975    -21.202387    46.484352    58.556141    25.480497    -5.775987    -22.629559    -0.000000    0.000000    -0.000000    13.359091    17.543148    26.208843    12.727071    -0.000004    -0.000001    12.727058    0.000004    0.000004    3.542248    8.983089    14.597812    3.498747    -0.000003    0.000004    3.498743    0.000003    -0.000004    -1.129320    -8.998282    5.552923    -1.115413    -0.000007    0.000001    -1.115419    0.000000    -0.000006    -6.022325    -17.906971    9.601259    -5.729574    -0.000003    -0.000000    -5.729578    -0.000007    0.000001    -16.535469    -34.479691    -5.240976    0.000005    63.684082    -0.000004    0.297789    12.175768    13.346437    0.000000    1.723269    0.000000    -12.568366    -19.529182    -10.761694    0.000004    46.847065    -0.000004    4.369391    -20.137075    10.152133    0.000001    -1.056733    -0.000003    
38.564281    80.100754    22.692047    8.481619    1.997068    -10.283759    -1.205136    -10.269923    -6.729469    9.056282    15.035688    -8.803391    6.287340    -16.422926    13.399326    2.681775    7.813784    11.665001    12.602942    -8.912546    -14.537955    -31.496206    34.198280    -77.803955    10.999711    -3.077426    -105.439896    43.812012    -13.829463    -9.772304    30.508669    34.795403    -45.764603    -11.741721    0.071628    23.317373    -0.000000    0.000000    -0.000000    6.022316    17.906973    2.609625    5.729576    0.000003    -0.000000    5.729576    0.000000    -0.000000    5.800519    8.954667    1.327865    5.729576    0.000004    0.000003    5.729579    0.000003    -0.000004    5.800516    -8.954675    -3.565631    5.729578    -0.000000    -0.000002    5.729585    -0.000004    -0.000005    6.022323    -17.906982    -7.085162    5.729578    0.000003    -0.000000    5.729576    0.000004    0.000005    5.084108    6.680984    12.026464    13.922050    52.002476    19.875635    6.542254    -2.930865    65.970451    -12.436826    25.286627    21.912607    -21.040497    46.748184    58.642311    25.680058    -5.858703    -22.609333    -0.000000    0.000000    -0.000000    14.022610    17.496742    26.118900    13.361504    -0.000003    -0.000000    13.361498    0.000000    0.000002    3.863386    8.979884    14.602579    3.815962    0.000003    0.000001    3.815961    0.000004    0.000004    -0.968733    -8.998740    5.578041    -0.956810    0.000000    -0.000004    -0.956806    0.000003    0.000002    -6.022314    -17.906979    9.601258    -5.729581    0.000003    0.000004    -5.729580    -0.000006    -0.000008    -16.500452    -34.372562    -5.079072    0.000002    63.767262    -0.000005    0.450455    11.837828    13.394768    0.000001    1.701796    -0.000000    -12.560068    -19.598867    -10.666171    -0.000002    47.176262    0.000001    4.388138    -20.311981    10.050203    -0.000000    -1.123926    0.000001    
38.548141    79.996902    22.669970    8.508881    1.872062    -10.158968    -1.201759    -10.236056    -6.732526    9.117405    15.050566    -8.825771    6.663869    -16.265236    13.357790    2.670185    7.957651    11.505863    12.585440    -8.735373    -14.525025    -30.944681    34.198467    -78.110374    10.008533    -2.732063    -105.114311    42.467373    -14.625852    -10.426650    30.705765    34.635323    -45.761730    -11.848310    0.025685    23.317457    -0.000000    0.000000    -0.000000    6.022319    17.906971    2.602401    5.729578    0.000007    -0.000002    5.729590    -0.000003    -0.000002    5.800517    8.954666    1.324257    5.729579    -0.000003    -0.000002    5.729578    0.000000    -0.000000    5.800516    -8.954676    -3.393849    5.729576    0.000007    0.000003    5.729585    -0.000010    -0.000003    6.022323    -17.906982    -6.741578    5.729583    -0.000000    -0.000002    5.729559    -0.000003    -0.000002    5.115956    6.693334    12.036106    14.023466    51.864819    19.661985    6.632652    -2.968740    65.992004    -12.301090    25.346508    21.903389    -20.895588    46.999046    58.750298    25.895674    -5.947968    -22.587158    -0.000000    0.000000    -0.000000    14.903073    17.431734    25.945007    14.203901    -0.000010    0.000002    14.203902    0.000003    -0.000003    4.289780    8.975203    14.581216    4.237165    -0.000007    -0.000000    4.237158    0.000007    -0.000001    -0.755510    -8.999231    5.611397    -0.746205    -0.000003    0.000006    -0.746210    -0.000003    -0.000007    -6.022318    -17.906975    9.601261    -5.729578    0.000007    0.000002    -5.729578    0.000000    -0.000002    -16.558245    -34.161957    -5.034076    0.000000    63.793579    -0.000002    0.677395    11.347324    13.415762    0.000001    1.659302    -0.000000    -12.600244    -19.631142    -10.615899    0.000000    47.563999    -0.000001    4.398574    -20.574732    9.922590    0.000001    -1.169925    -0.000001    
